<mxfile host="app.diagrams.net" modified="2024-03-20T02:19:13.348Z" agent="Mozilla/5.0 (Windows NT 10.0; Win64; x64) AppleWebKit/537.36 (KHTML, like Gecko) Chrome/122.0.0.0 Safari/537.36" etag="ylXM8-ivq1K2Iot6E8Oh" version="24.0.7" type="github">
  <diagram name="Page-1" id="74e2e168-ea6b-b213-b513-2b3c1d86103e">
    <mxGraphModel dx="724" dy="360" grid="1" gridSize="10" guides="1" tooltips="1" connect="1" arrows="1" fold="1" page="1" pageScale="1" pageWidth="1100" pageHeight="850" background="none" math="0" shadow="0">
      <root>
        <mxCell id="0" />
        <mxCell id="1" parent="0" />
        <mxCell id="tP0BE2oLK_VEsoSUitUX-1" value="&lt;h2&gt;&lt;span style=&quot;font-size: 14px;&quot;&gt;机具回收流程&lt;/span&gt;&lt;/h2&gt;" style="swimlane;html=1;childLayout=stackLayout;startSize=20;rounded=0;shadow=0;labelBackgroundColor=none;strokeWidth=1;fontFamily=Verdana;fontSize=8;align=center;fillColor=#B3B3B3;" vertex="1" parent="1">
          <mxGeometry x="270" y="45" width="520" height="410" as="geometry" />
        </mxCell>
        <mxCell id="tP0BE2oLK_VEsoSUitUX-2" value="分支机构" style="swimlane;html=1;startSize=20;" vertex="1" parent="tP0BE2oLK_VEsoSUitUX-1">
          <mxGeometry y="20" width="250" height="390" as="geometry">
            <mxRectangle y="20" width="40" height="360" as="alternateBounds" />
          </mxGeometry>
        </mxCell>
        <mxCell id="tP0BE2oLK_VEsoSUitUX-16" value="" style="edgeStyle=orthogonalEdgeStyle;rounded=0;orthogonalLoop=1;jettySize=auto;html=1;" edge="1" parent="tP0BE2oLK_VEsoSUitUX-2" source="tP0BE2oLK_VEsoSUitUX-4" target="tP0BE2oLK_VEsoSUitUX-6">
          <mxGeometry relative="1" as="geometry" />
        </mxCell>
        <mxCell id="tP0BE2oLK_VEsoSUitUX-4" value="开始" style="ellipse;whiteSpace=wrap;html=1;rounded=0;shadow=0;labelBackgroundColor=none;strokeWidth=1;fontFamily=Verdana;fontSize=8;align=center;" vertex="1" parent="tP0BE2oLK_VEsoSUitUX-2">
          <mxGeometry x="19" y="55" width="30" height="30" as="geometry" />
        </mxCell>
        <mxCell id="tP0BE2oLK_VEsoSUitUX-6" value="客户经理" style="rounded=1;whiteSpace=wrap;html=1;shadow=0;labelBackgroundColor=none;strokeWidth=1;fontFamily=Verdana;fontSize=8;align=center;" vertex="1" parent="tP0BE2oLK_VEsoSUitUX-2">
          <mxGeometry x="110" y="50" width="100" height="40" as="geometry" />
        </mxCell>
        <mxCell id="tP0BE2oLK_VEsoSUitUX-7" value="设备解绑" style="rounded=1;whiteSpace=wrap;html=1;shadow=0;labelBackgroundColor=none;strokeWidth=1;fontFamily=Verdana;fontSize=8;align=center;" vertex="1" parent="tP0BE2oLK_VEsoSUitUX-2">
          <mxGeometry x="100" y="145" width="100" height="40" as="geometry" />
        </mxCell>
        <mxCell id="tP0BE2oLK_VEsoSUitUX-8" value="" style="shape=image;verticalLabelPosition=bottom;labelBackgroundColor=default;verticalAlign=top;aspect=fixed;imageAspect=0;image=data:image/png,iVBORw0KGgoAAAANSUhEUgAAAMgAAADICAYAAACtWK6eAAAAAXNSR0IArs4c6QAABoxJREFUeF7t3VFuHEcMRdHRziygl92AvbMEQhLY+bA8ZHcVxHlH32RV8fJdjK2B4beHHwQQ+C2BN2wQQOD3BAgiHQh8QoAg4oEAQWQAgR4BnyA9brpCCBAkZNHG7BEgSI+brhACBAlZtDF7BAjS46YrhABBQhZtzB4BgvS46QohQJCQRRuzR4AgPW66QggQJGTRxuwRIEiPm64QAgQJWbQxewQI0uOmK4QAQUIWbcweAYL0uOkKIUCQkEUbs0eAID1uukIIECRk0cbsESBIj5uuEAIECVm0MXsECNLjpiuEAEFCFm3MHgGC9LjpCiFAkJBFG7NHgCA9brpCCBAkZNHG7BEgSI+brhACBAlZtDF7BAjS46YrhABBQhZtzB4BgvS46QohQJCQRRuzR4AgPW66QggQJGTRxuwRIEiPm64QAgQJWbQxewS+hCDHcXzrPV9XMoHzPH+snv+rCPL98XiQZPW2X+z88zyX53f5Bc/s5DgOgjwDSs3/CBBEIBD4hABBxAMBgjwe/ojFgw4BnyAdanpiCBAkZtUG7RAgSIeanhgCBPm56h/neb7HbN6gH38v/fhe7OPX/7/9IQhBYlUhyC+rf+K3WD5BwlQhCEHCIl8blyAEqSUmrJogBAmLfG1cghCklpiwaoIQJCzytXEJQpBaYsKqCUKQsMjXxiUIQWqJCasmCEHCIl8blyAEqSUmrJogBAmLfG1cghCklpiwaoIQJCzytXEJQpBaYsKqCUKQsMjXxiUIQWqJCasmCEHCIl8blyAEqSUmrJogBAmLfG1cghCklpiwaoIQJCzytXEJQpBaYsKqCUKQsMjXxiUIQWqJCasmCEHCIl8blyAEqSUmrJogBAmLfG1cghCklpiwaoIQJCzytXEJQpBaYsKqCUKQsMjXxiUIQWqJCasmCEHCIl8blyAEqSUmrJogBAmLfG1cghCklpiwaoIQJCzytXEJQpBaYsKqCUKQsMjXxiUIQWqJCasmCEHCIl8blyAEqSUmrJogBAmLfG1cghCklpiwaoIQJCzytXEJQpBaYsKqCUKQsMjXxiUIQWqJCasmCEHCIl8blyAEqSUmrJogBAmLfG1cghCklpiwaoIQJCzytXEJQpBaYsKqCUKQsMjXxiUIQWqJCasmCEHCIl8blyAEqSUmrJogBAmLfG1cghCklpiwaoIQJCzytXEJQpBaYsKqCUKQsMjXxiUIQWqJCasmCEHCIl8blyAEqSUmrJogBAmLfG1cghCklpiwaoIQJCzytXEJQpBaYsKqCUKQsMjXxiUIQWqJCasmSE2QsHgY9xkC53m+PVN3pWb5Bc887jiO74/H49sztWoQ+I8AQWQBgU8IEEQ8ECDI4+GPWDzoEPAJ0qGmJ4YAQWJWbdAOAYJ0qOmJIZAkiF/x/oz1x6+8P/t5jzHgD4Oe5/ljNYsv8T3I6iEnnX8cx19/EmRHMCYxW/lWgqyk2zibIA1oC1sIshBu52iCdKit6yHIOratkwnSwrasiSDL0PYOJkiP26ougqwi2zyXIE1wi9oIsghs91iCdMmt6SPIGq7tUwnSRrekkSBLsPYPJUif3YpOgqygeuFMglyAt6CVIAugXjmSIFfo3d9LkPuZXjqRIJfw3d5MkNuRXjuQINf43d1NkLuJXjyPIBcB3txOkJuBXj2OIFcJ3ttPkHt5Xj6NIJcR3noAQQo4nwhv4bQvXfru35z8sx+CFHJKkAKsFyklSGGRBCnAepFSghQWSZACrBcpJUhhkQQpwHqRUoIUFkmQAqwXKSVIYZEEKcB6kVKCFBZJkAKsFyklSGGR//6vR4WOuaW+B/E9yNz0evk2Aj5BtqF20UQCBJm4NW/eRoAg21C7aCIBgkzcmjdvI0CQbahdNJEAQSZuzZu3ESDINtQumkiAIBO35s3bCBBkG2oXTSRAkIlb8+ZtBAiyDbWLJhIgyMStefM2AgTZhtpFEwkQZOLWvHkbAYJsQ+2iiQQIMnFr3ryNAEG2oXbRRAIEmbg1b95GgCDbULtoIgGCTNyaN28jQJBtqF00kQBBJm7Nm7cRIMg21C6aSIAgE7fmzdsIEGQbahdNJECQiVvz5m0ECLINtYsmEiDIxK158zYCBNmG2kUTCRBk4ta8eRsBgmxD7aKJBAgycWvevI0AQbahdtFEAgSZuDVv3kaAINtQu2giAYJM3Jo3byNAkG2oXTSRAEEmbs2btxEgyDbULppIgCATt+bN2wj8DVkJaPZouOYUAAAAAElFTkSuQmCC;" vertex="1" parent="tP0BE2oLK_VEsoSUitUX-2">
          <mxGeometry x="170" y="150" width="30" height="30" as="geometry" />
        </mxCell>
        <mxCell id="tP0BE2oLK_VEsoSUitUX-9" value="" style="shape=image;verticalLabelPosition=bottom;labelBackgroundColor=default;verticalAlign=top;aspect=fixed;imageAspect=0;image=data:image/png,iVBORw0KGgoAAAANSUhEUgAAAMgAAADICAYAAACtWK6eAAAAAXNSR0IArs4c6QAAIABJREFUeF7tnQmYXFW1tt91qioJQwCZFEzormYQBTMxD1fSgChqEOEHRLwqKgmDzBAk6WqKriaQRK9CQEkURfj1xwviFVQuGhJQEJmSNBCBDF3dYRDB/yoJkITuOuv2qQ4mIT1U7bNPTb338/STPMle317r2+frc84+e68luOYYcAz0y4A4bhwDjoH+GXACcVeHY2AABpxA3OXhGHACcdeAY8CMAXcHMePNWQ0RBpxAhshEuzDNGHACMePNWQ0RBpxAhshEuzDNGHACMePNWQ0RBpxAhshEuzDNGHACMePNWQ0RBpxAhshEuzDNGHACMePNWQ0RBpxAhshEuzDNGHACMePNWQ0RBpxAipno9NJhvB0bTiw2guFbDWfduhEkEsOhawR+fDj4cRKJdeS61qOsIy7rgXWs89azq7eO1aPWkxa/mCFd3/Iy4ATyXv7Ty7eD4fvgd30I9fZB+RDwIUT2Ad06/HTpS+AtQ3U5IssQfzk+y4gnlzvxhGfXNsLQFsj0FaOJxQ9G9WAg+AnEsJttkgvGE1mB6lJUH0Fif+JNbxHfGb22YHvX0ToDQ0cgU58fyYgRB6IcgOqBCAcCe1pn1C6gj/AwyGOoLqLbX8S1ey6zO4RDG4iB2hZI+sUd8XPH4/vHI3I8sGMNXA5PgNyPJ/dzdd3DNRBPRYdQewKpTVH0fREpT+eFEgimpe6Bir7SqtS52hFIU8dJ4J9UQ3eKYi+pF4BALHeQqX+0WGPXv28GqlsgV760E/GuM1DOQPIv2a4FDIj8AvR2WpK/coSEY6A6BZJqH4t4Z/QslZ4B7B6Ogpq2/iOqt7Nr7jYu2Dv4JuNakQxUl0CaOz6Nr8Hd4vQi4xza3YXnUbmdnH8LMxr+NrTJKC766hBIKnsIwoWoE0Zx07tF705Ub+KtxI3u+0phTFa2QJo6kngaCOPCwsJxvQpk4BnwbiRTN6/A/kO2W2UK5LJXt2GrdReCBsLYdcjOTuSB6yMgN5JJ3hH5UFU6QOUJJJX9CqqXIrJ/lXJahW7Lb3v2mc0ik3yoCp2P1OXKEUjTyr0RaQb5YqQRO/D+GPBBryLT0Ooo2shAZQikOTsFpblKlmx9lLWIrgV5G4K/szb/b2g3ylaIbAW892d4VVx4qr/L/6LKJB+rCn8jdrK8Akmv2p9uvxnRUyKO0wR+GciGbeksQ2UZ8fgy0qNeMgHj/OXD2X74KMiNRrxR4I8CHQ0yCtivsjZO5oV/FZn6bxnFWkNG5RNIU/ZCJH/XqIANhPIK6FMgfwbvj2T2+GPJ53hax254GixnHwIc2rNt5DCg3Hede8hpihkNT5ecjwoZsDwCSbXPBrmsfBzkBTEfglWc2FNk6p4qny/9jJzO7oCfOwyNHYdwHMpHyuOjvIz6F9HacFd5xi/vqKUXSHPHPFTPKn3YshTR+fjefOL+fNLJdaX3IcSITdmJeIFQ5DjQA0IgGZrKdDL1MwyNq9asdAJJP7k1uZ1+A0wsGVvBFgvf/zkS/z2ZukdKNm7UAwU7C9BTQT5f0oUN5Se0Jr8SdXiVhF8agQTP1zF9Dti+NMHLb/LbvmN73EFaukszZhlGSS/dkdyIzyPeaSgfK5EHj5JJHl6isco+TPQCmb7icLxYKX57vwbcMWTPQzStOg4v93mUM0twVf1/MsmdSzBO2YeIViBNHZ9CNHisirKtBX8O/rAbuGb0y1EOVBXYqc4jEP98lNMi9zf29kjS+70Z+ThlHCA6gaTag2fkn0cbm/6QHHOG8jJkv/w2d05CcxeAHBvpHMR6ssCkk69GOkYZwaMRSKrjqz0fwW6JMK67UebQmnwwwjFqAzrY29Z7VGBcZAF15fbmur1WRIZfRmD7AkllLwCujyimjp4DpVeTSd4aEX5twgbfVHJcBVwUXYA6jkxDW3T45UG2K5BU+zSQayIK5VZiXE06GYjENRMGmrIn4nFVdHcT78iaWk4Pjveb8NynTXR3DnfXsDZJPUBR3038+KhaWiyxI5CoVqtUf0pcmtxdw6ZCNmAFaZJEvwuMtoz+DrGObUg31sT3p/ACaWoPEjs/b5nknqMJ2kxrQ8Y6rgPcyECqcz/IXQ9yjFVaVOfT2vBxq5hlAgsnkFM0xr4dfwH2seq/z+e5JhnxErFVj6sXbPKTCd6/43dBzrUcxHVkkldaxiw5XDiBpLJBYrITrHodYzzp5BKrmA5scAZ6jx8Ej1w228VkkrYxbfo3KJa5QFLZmcDUQUcouIN0E/v79qQPDA7ruFYOBvLvJdxupw7KhgCEL9CS/H/lCMfGmGYC6X3B+4UNBzZg/A+Z5E4W8RyUKQNN7cf1FAv6GWBpPmQlfuyoal3ZKl4gVy7fhURiAaq2so5kySQbTOfT2UXAwLT29xOTJyyucN1MJnlOBJ5GDlm8QJqz30OxFWwbmWR0WyAip6/GB2hqb0NkjJUoRU6ipf6XVrBKCFKcQJqzp6MEt9/wTfgDLcmjwgM5hEgZSLUvB9kr9BjKIuJvH1Vtu38LF0hQz8/zFlghC2knU1/p5c9CXxM1AXDFyu0Z5v3TUixVt/RbuECasj9CrBzGeZVMsnyFMi3N9JCCCc7DCwutxKy5Y2jda4EVrBKAFCaQ5o7PoXp3eH90NbHEv5EePWTTyITnsEwITdmLEf7Dwuj3kUl+ygJOSSAKE0iq4wHQo0N61IXoybQ03BsSx5mXi4GmjtsQ/ffQw1fRt5HBBdK08kzE+1FoUuBMd47DAovlhJj2l93wRgSpScMt8Qt/oiV5RDlDKXTsgQWSXhinu/4xhAmFAvbZL9iV29rgklKHIrFCjJtWfgrxbOQZOIdM8uYKiapfNwYWSCobnED7TsggXiWWOIr0qGUhcZx5pTDQ1D4dkZBZ4GUpsbcOrfRl3/4Fkq8g2/1YT7XUkMuxch6Z+u9Vytw6PywxkGq/C+TkkGhXkkleFxIjUvP+BdK0Mo14wTnmMO1uMsmwJIYZ39lGxUC6s4Fc7kGQMAeuXianB1RyYdG+BZJWj1zHs8CHQ/C7nlz34czYe1EIDGdayQyk2r8BMieci3o5mYaKLbPQt0BS2SDna9gtylX31TTcRA9R61T2d4D56UHVp2ltGFup7PUnkGBT2YkhnF5J94jDuHa310NgONNqYKC5/eOoBCIxb75+iWsabjcHiM5yS4GkOsaDhnwsci/m0U1ZBSKnOuaAfiOEZ78jk/xECPvITPsQSPZa4JshRnywp1pqYwh7Z1ptDEx/eTTeO0+GKtmt+glaG8LdiSLgbXOBpF/Zmtz64OU8aTyW6mdpbbjH2N4ZVicDqfY5IOZ3EZHbaan/UqUFv7lAwiecfoxMMqiv59pQY2B655F4frjajrGeX8wVljlzc4E0d9yA6vnGc6tcQmsy7Jd34+GdYZkZSGXvB44L4UXF7dd7j0CybSimRyz/QSy2P+k9XglBkDOtZgaa2r+GyA9DhHArmWQpCgAV7OJGgTR1fBjRIAmcWVPm0po828zYWdUEA+nXtiX3VvAOW2cYTweZpPn7r+GgA5ltFEhz51moP894DJGjaam3c+rM2AlnWHYGQi/5egdWUlnujQJJZYM8VycZEvwEmeTBhrbOrJYYyFe28s1XMZVv0poMkhJWRNtUIEFGw62MvBK5hpb6JiNbZ1RbDNygw/l75wpUR5kFJvPJ1JtvXTEbtF+rXoGEPZQfix1Feo8/WPbNwVUrA6mOW0C/aux+Jjn4SVdj8OIMex1JdZwLelNxpv/q7bKUGBJXs2bNq05Dc3cYxxfz9iNdZ75gZDzwloYbBNJ+U4j09z8ik/yaRZ8cVLUzcG3n+3hbV4FuaxSK6Km0NNxpZGvZaINAssHq00QjbJWTaa23kBLIaHRnVKkMNGcfQTncyD31r6Z1z7SRrWWjd+8gr4HsYoTtDa/j6t1XGdk6o9plIJX9PmD2XUzlTlrrT60EcoQr/7oL8XWvGTqzmkxye0NbZ1bLDDRlpyAYZi3pSeiQqQ+XWsgStxJqBUv5E63Vkd/IEl8OplAGUu1jQcwrhVXISpaEWsES5tLitpcUes0MuX6pjjXGL+oVspIlNGevQ7nCbPLkfDL1N5rZOquaZyAVZvGH42lN/ne5OQoEcjPKFCNHlEZakw8a2Tqj2mcglQ0SfwQJQEza6WSS5t9STEbsw0ZItf8cxGzFwNdDuKbhcUu+OJhaYyCVDc4GBdk5i2/KubQmg5WwsjYh1CEXb38ydUvLGoEbvHIZSGWD3AZBjoPimzKN1qSZbfGj9WsR3EEeBznICFOlgdb6rJGtM6p9BlLtk0HmGgUqOpuWBotlxo28ILiDBEml9zYyz+kHKjltpFFMzsgeA80rT0a9u4wARX5AS/1kI1uLRoFAgo+EZl/R16/fjln7rrHoj4OqJQaCXeKevA+fHcHfMf932AGl90/YB+inBLjeRabhlHLTETxidYHEjRx5/ok4d56aM7J1Ro6BgIHeJNhHohyJSJDwYcNx3co4FxJ8KDT/mPOOvwMz93zDzbRjwAoD6Se3pnvH0xFOB4lVQgLC4BHrJeCDRgF25fbmur1WGNk6I8fAQAxMy45jRtJ8q4oldoM7yLOg+xnh+RzGNck/G9k6I8dAFTAQfEkPsW/fm0Rr3a+rIE7nomPAiIHgEeu3wPFG1spXaU3+2MjWGTkGqoCBYLv7z3pfigyaylRa62cbWDqTIcDAmPvZxhvOR1D282FnL0dbd4Lnnz2KF6sl/OAOEuLkl95Ea4N5Ru9qYcn5WRQDYxZwrgjBR77g3bavTwgviRLUoJm15GgeKQq8xJ0DgZjXA1EW0Jo8psQ+u+EqlIF957PT8BhBvcGvFOyiMKttoulxi4JHMe4YCCQ4N2y4a1JeIVNvtkRs7LIzrEQGxi3kKwqm76MvtDWybyXGJUzPHorHo8bOuY+FxtTViuHYBZyEEKSuNW4i3LNkIp81BojIUEhnR5BjrTG++xZiTF0tGB6wkJ27IfjYPDxsPAKNSxqpqAN47+bFeg4Mb3FuqTfsdVHV9mMXci/wGStBKI+1HU1FVSh7VyDmRyPVrWRZuTiqEGTMQ5wgPr+y6br6XP30MVRE0rggrncFYn7yC/eibvMCqSascQuYqoLtUgX3tzXyyUrh4d3s7p9EuM/cqdjHyOwRroCj+eDOskwMjF2YX7UqfEm3ED+V1W1HUzHJCHsFks5+gBx/LcT/Pvuozqa1/Mcjjf13hkYMjF3IYmCckfEARn6Ow585NsTKqkWHNimgE2JXL7KCTL3ZsV2LwTio0jIwdiEayYjCJW0TqYhqyZsU8VyZRryrjAMWPklLMigD7NoQYWDsQp4GPmo7XFG+v+RozrWNa4K3USDp7Dhy+VumYZPvkak/z9DYmVUhA2Me5KeifCEC13/T1mhp6Tikc5uXugpzeAr5H2LeR12d9JAzUkXmYxcS1KXMRODyM22NjIkAt2jI9wokAxqiGKdcSqb+P4r2whlUJQNjF3JazwfmKNKDvtHWmM96Uva2uUCmt38MTx4K4ZUrBx2CvGozHf8Hdsl186gIe9r2XYRTl0yk7GXYtqwmmsoGxRM/bBywcCItSatfV419cYaRMzDuQc5VxbQA7ED+3dnWiFnOaItR9yWQ64ELQoxxB5mk2QnFEIM60/IxMHYh5jUuB3Db9znqmWMoa3nxPgTSeQT4D4eiOyZHkK7/UygMZ1xVDIxdSJCjud6q08rv2o7mE1YxiwTru2B7KnsPMKlIrI3dRX5JS/1JxvbOsCoZGLOQrwv8wKrzwqVtEynbwk/fAmnOnoaGXZ3QL5NpuM0qWQ6s7AzoYup9OC4Hjw8bzxaJ3cY8wAQ8Zgoca8nZ9ZJj0pJj+b0lvKJg+hZIAJHKBofqxxeFtnnnZ9h22yO4YheX3DoEiZVkmlvE2cgmx7OFm2PjOKcvHz86n8O8OIeiHAb5n1GmsQis9DwmLTqK4NxSSVv/AmnuuBTV4AC+eRPN0NLQbA7gLCuFgdwSMmj+w+Amj9Ks83z2kAm8XqifYxYySnOMjsX5jCr/DowuxFbhofUJJr1wJCX9hdu/QHp3+AZ7bcxKI/RGvRbkCDL1IbawFEKf6xMVA7qQEf4O+btGn9vavS52k4N51WT8j/wnwxK7ch6a/xq/TQEYP21r5IsF9LPWpX+BBEOEqTG30cXfkkl+2prHDqhkDOhT7KUe39d+3idE+IU3jv8T1qExCzhEJC+SjxeANbOtkeCAX0nawAKZtnwCsXiwXBvuQL6SpjV5dUkicoNYYaBrMRO94H1D+85VIMJj4jOpmMerwRwb8wBp8Rh8R7nPBW3HMGcwPBv/P7BAeu8i5onlNvVQ5dO01gd5gF2rcAa6n+KL4uUfq7btx9WXc8KkYePC7P7uG3ncQr6s5L/MD/zI5XNS2zH8MmoqBxfIlX/dhfi6IG9W2P02bcSGH0t6979HHZTDN2cgt4hvIgNXplWfE+IH5LOZRNLGL+AoX/IiGagsx99EmLRkIk9E4sQG0MEFkr+LdJwLGn6/TYUUZoyS0GrGzi1hDsrAuZaVc2MTTDNxFs7O+Aeo8728SAZ6f30qHmPSUx8LcVx8EJcKE0jvo5ad/TbqX03rnhWT1qXwKavdnvo4H9BE/mX8xAGj9LgmNvY9S70R0zJ2ITcC/R7EU/jV042D+B3Cx8IF0tR+AiJ2duk6kYSYMrumupgjFL6rcOAgyD+JjbecwaTAUMYu5NKe96GBvsnd1NY4yJ2vwLHe261wgeTvIu23g1hah9YUmYZWQ7+dmQUGtI0L1Oc6ha0GghPhAXmbSXJ4iBS1If0ds4CTpfe95P19QQl8cUkjPw05zBbmxQkk3T6GnPw3sJslR84kk7zVEpaDKZCB/BIunAl8qQCTFzyYJONZXkDfSLt8dAEHeL0iOaSPgW5ta8zHZLUVJ5Bg6OkrT8fzfmbNC/GOpaXuAWt4DmgzBvQv7MZ6GnJCUmCUKJ9QmFggTW/5wqTEuPx5j4poB89np/WxvEiC477/aiJcsWQis2w7WbxAAg9SHSHPrr83DD2NTMN/2g5uqOF1LebjnvAh4EOijNPepG79fcsYlB5VvhSfwO2DdixDh7ELuQ7lLIQdUZa1HZ2Pe8s2c9WJiL8/yP4blo2DP5eALAF9DpXnuWKP4HhHn81MIHmRZO8GPmeRm4vJJL9rEW/IQAV3CV3PDUr4bR+bkDYtNn7g7yGVQPC4hUzss2TCzJdGId0zQQpJSxR855vB1C0rNpsLJJ2tJ0fwPtK3ck3YE/k2LfWXmZgOVZvcU6QpZHtGEQSpcn98QuUkkC7C9d6uM7MnIl7xX9mFe7m87oRNxzMXSIDS1PEpRH9TdAADG/wXscT5pEcFRVlcG4CB3OJ8es6LbJPkQ2NifGUVsik4xtmd96AhTsNCB1Prku+OF04geZG0X46I5ZcjfQbxL6Rlr4p5OSx4gkrU8Z3FHBSDxyMY7lux8VweAW70kLM6g0I+FrbA6FlMrf9h4HB4gQQozdnvolxomYF1oBeSaZhnGbfq4VSJ6RKe3PASbjUebxh7y36ssApaKrBZncsAS0nU9QCm1i+yI5BekfwMxX66H/dessXllVvCt9D812WrTeA+bzyfsgpaKrBZq5pAbaZBnc/Uuo/bE0hARKpjPmgUddPvJdZTmD6dNDq5Vqo5KtU4uUUsR9jL9nie8gWZQFCOr/razM5FSKgcClvGLHq4XYH0vpM8g+TXnG23FyB21lCvZKWL2MUXXrNNboDn5fiwHMjzUWBHipl+ZWu27noDiNsdRy6xL5D8nST7N2BXu84GaOIjTKal/hb72NWBuGGbSCSLF94/2UoaWVcdTGzi5bc7xpOTIAuP7XZnNALpFUk01YcCbI3vQ+vosu8Nsj0bheDlFucLy4Q/m9PHYLHxlhZtCgnEZp/ZnV9EI/ni/1J0Ask/bmUfQzjYJhf5u0imPmYXs3rQtshNZc/1f8bG8z57cCVEmt0ZbDu5IoIRIxZI4HFzxw2onm/PeZ1PpqGQ7Bf2hqwgpK7FHOFBuNzJfcQj8F/eeKtbh0rH2qzOYB/fKREMGOEj1qbeprJn9+zjD5IAhG+qU2ltmD0gUHCO/trdCk5mFt6p0iGsfpKdt4kVnqitYM+Uy2IT+HbB/Sup46zOIPNOkL3RcovqJb0vN5s7PodqsMExXIvpWNINQUK7LVsqexFosEFtGARbJeROYrn5pPcMPiDVTMstzq802dsD13Ojr+rtJbM6XwyT2rTfCyOSZd6BLsPpHYfjcRuoaYaUdWSSW55+a+44A9XgdGJ/6fcfRGU+wgIy9cHOzapuuUXMQSweMVVe9N5mPylxWk8rk/Ctzo/gs9QK1mYg8iBT92iM9iW9L6+bOm5DNMjJatDkN2Tqg/02va05+wk0n2isiNurvoR6j+Lpo6j/MJk9I00bYxDkoCb6JAnfYyVSWF7bQQGF82Pj8skRqq/NzIYrX95fxDm/kSuTD5ZeIKnsX4EPmM3EhiKh+YyPiWmgJ5vhbGq1QTDCH+juWsC1ewcl6MrTml7cG3IfhdyYwTK/aBsn+z53hXVU4PfeeI4Li1M2+1mdzw6SP8vEteuZWpffJV1agVz26jZstfZNE4/zNjHGk9OvgQycu8l4gMAwEAwP4ckDaOxZ9O2/E8+9Tno/c7/f68+0FfsTj+2HBjsOdMOPbNw6IiyjJTnoO0ZuEbch+Qzpxq1qv30EEUe1vDu17l+6KK1Apq/4HF7M9EX9DZQ4UlAWcOMLZgDDtT35mV4HeR00+Pk7Iq/j83r+T8n/29uo7gLeziC75P8usjOiu6D5LPk7F54tPz6GzOhnBgskt5hpwDWD9evj//+Zg8a+iuAYYJXeZFZnsKxr+5j2iySYyMV17e8GVFqBNGW/h/RdcKX0DFf4iEXkDtvwbeRmoNA9cFVxnLbfGZqxch/i8fuABmuzKHIjl++xxfe60gokbIlpa2xUA5C8Qo4DmVEfvLMN2jZ8H5kmcKj2sWgh8IYPS9Unkzggf1R6s/bG5MRFnvBlQV/Mqc7dfl7O9knRQWMoqEPvxsTgUNTRBfUfuFNQQu5xlLu4oq7PEm+lFkh0+7MssFVxEEXcRTb1Xf/Mdt2J3tJn4rE0piyVCfS7+PCPs0fUJ+h+RFV23/hooZduO7e7bMUz+52LWZ0/KTCf1yYQ+VxuHWgu2EQbtCUMk8e4ePBfPqUTSFPnsYhflkKMFXfhF+qQahee91la6oPHicjaG5PjaU9ky7ocyo0j53VZ3CYUMoRZq64BDd65Bm8i96F6H7r2Vq7Y17hsW+kEksrOBKYOHpnr8R4GXiEnBT9qmbC3ekr8MEH6rGuvyK8T6p231bx1q0ywrdnM7DgXkUJ2MbcjXMfldVbKUZdQIB0Pgx5hjbChBdRGJhkkgYusvTklfo8ik/oZ4NmelbvzRs7t/kNkDgwEPHPVCYgWkjh9DirXccUer9jys4QCifB8iC02KhvnXjLJzXI22XT3zXP5AH7iHlUO6gf3TYHztp3bdZvNcQfFmtUxASR4Kf/X+1HfNvoNptYXcocZdMhNO5RGINOzh+JR9XugimI2is7C9bQkrefBetfVf5ydGB9XvQek35rmHnrVNnO7W6IIbwvM2St2RYfdC9r/mSIJiuf453B5spA7TNFul0YgqWxQlTSodehaWAZUnyWe+Bzp0ZGk5nnjrNjxnucFuWr7Pd+tcOtI7TpP5vF22HAGtJ+96heonjRAnyfIcQ5X1j0VlR8lEkhH8Ftg4ybDqKIZSrjiXUBLXSSVXt+ckjhT4UeD0BkcJzhv5Nx3otm7NrvzepQL+vdBfklX9zlMb3h36TaS2S+RQLL/AyU8zql8h9bkJTSt/AzifbpXnP0/NkTCbKSg+kdEHgb/EdbzMDP3DDJ6WG1vTolfqciMgUAVOmL4520zN2e3evGszmC1M1j17K/NYWrdAOKxR0X0Akkt3w/iwY7L6JvKncTjl/SZ1zfVPhblM4gERSGL2B4fvdsFjnAPor/G9x6mtf65Am1CdVszJXEDUMB3EE2NnNttp1rY7I4voNJ/pSjlm1xRN5B4QsX8XuMSCKR9Mshcq15vGcWfULms4MNQU18fybC3DgI9CJED839CXaQ+Fge+FCU4NfkMnjyNpw+QTpYlHc+aKYmCznuLyH0imtrm+13h3gf6Tz69BtVzuKLeepm1gaYmeoE0td+GSKgt2QME8ByiV9HScGdx118fvdMrdsWXg/CDZc7Y7gi7o/rB/J+R5PhiLcJyNMiD669A4s/S7T/DsPqnSYsfOh5LAP+4iB3iaxPBS/u/FQAZPOoFB+LuHnlz94MF9N+yy8yOFxDZ5z3/8Vx+pWpq8iEjzBBG0QvEVvnozYN8FWEWLckg/X/0La1xurIfxPN2R2UnPN6HBj/dO+J5O+T/3vuOtQ0EiddkLeqvQ7y1sMmf6q1CdQUaX841o1+O3nE7I6yfPGzf9ei9Uly602UIiwTpyPn+ehHe9KFtWCzx/NbfWxucIe+7zcxehHibzuvvQc5h6h4r7URTHEp1CURZj8gcMvXVmZ6/uLmpqN5rJscbVeQeCVHSbWNA+pIqi/CYtd3N3Y9sFuiMv+5CrOsUhFPQ3M/ZqvvHXLD3+nKREb1Amtr/LyJnhA5Q9Rbiw9KusE5oJo0BVk9JfK2nEGi+boatJiqztp33ThRJ36y4GL1AmrMzUK4M4e3dIN8q+AU8xEDOdHAGVk8Z9mtBg5VAm+2FkXO79rUJaAsreoGkOz9Czg+2mWxXpNML849TLfXF15orciDXvXAG1pwdn4iK/eTZoveMvLn7s4V7Upqe0QskiKNpZeGpWZQlG94zBvuSWxqG3ChbMLDm7MQgX7kNSRNtNF79MhxyMLPSCKQwkXSiOofWhupMfzkY0zX0/2+fu9Xo7lz3c9K7ametKTy23dyuQ60BWgAqnUDyIsnQ0pN0AAACRElEQVRORLgYdDzI6A3+d4DMIef/lBnR7quxwJeD2MDA6imJP/eUbDvENiG+6tXbz+tO28Y1xSutQEy9dHYVx8CasxM/QPm6fcfk/pFz3/mkfVwzRCcQM96GvNWayYnzEPvpShVWbze3a/tKIdgJpFJmosr8eOPsxMGe8lgUbit6+HZzuyvigJ0TSBQzPEQw10xJRJLGSYRLtr25qzTbiAaZKyeQIXIxRxHmmimJxYD9ZBIqp46c9074DagWgnYCsUDiUIV4c0rixz2Hpr5iO/5YLj566x+ufck2rgmeE4gJa84mz8Dqs+NTRcX24aWlI+d2FZpjOPKZcAKJnOLaHeCtc4af4Pu+1WwiCrdsN7crguVjs3lwAjHjzVltYGDNlITVApoqeuQWW+DLyLYTSBnJr4Wh3zo79hlfvSCxm412wci5XZFkajF1zgnElDln9y8GBklbWihTS0bO7RpfaOdS9XMCKRXTNT7Om1MSQW7Z/qoMDx69dL1/5M28NnjH0vZwAikt3zU92urJia+LUGxW9QdGzu06tlKJcQKp1JmpUr/+OTkxIRYkfRMGvOglqOwEN5U8GXaRvDqBFEmY614YA0HNEU/kUNUgSZ8G9Ue6gQdVedSL8VTo/FmFuRG6lxNIaAodQC0z4ARSy7PrYgvNgBNIaAodQC0z4ARSy7PrYgvNgBNIaAodQC0z4ARSy7PrYgvNgBNIaAodQC0z4ARSy7PrYgvNgBNIaAodQC0z4ARSy7PrYgvNgBNIaAodQC0z8L9tEHIY6SQr7QAAAABJRU5ErkJggg==;" vertex="1" parent="tP0BE2oLK_VEsoSUitUX-2">
          <mxGeometry x="104" y="155" width="20" height="20" as="geometry" />
        </mxCell>
        <mxCell id="tP0BE2oLK_VEsoSUitUX-12" value="现场演示，交给商户" style="rounded=1;whiteSpace=wrap;html=1;shadow=0;labelBackgroundColor=none;strokeWidth=1;fontFamily=Verdana;fontSize=8;align=center;" vertex="1" parent="tP0BE2oLK_VEsoSUitUX-2">
          <mxGeometry x="110" y="315" width="100" height="40" as="geometry" />
        </mxCell>
        <mxCell id="tP0BE2oLK_VEsoSUitUX-17" style="edgeStyle=orthogonalEdgeStyle;rounded=0;orthogonalLoop=1;jettySize=auto;html=1;entryX=0;entryY=0.5;entryDx=0;entryDy=0;" edge="1" parent="tP0BE2oLK_VEsoSUitUX-1" source="tP0BE2oLK_VEsoSUitUX-6" target="tP0BE2oLK_VEsoSUitUX-15">
          <mxGeometry relative="1" as="geometry" />
        </mxCell>
        <mxCell id="tP0BE2oLK_VEsoSUitUX-11" value="" style="edgeStyle=orthogonalEdgeStyle;rounded=0;orthogonalLoop=1;jettySize=auto;html=1;" edge="1" parent="tP0BE2oLK_VEsoSUitUX-1" source="tP0BE2oLK_VEsoSUitUX-12" target="tP0BE2oLK_VEsoSUitUX-13">
          <mxGeometry relative="1" as="geometry" />
        </mxCell>
        <mxCell id="tP0BE2oLK_VEsoSUitUX-19" style="edgeStyle=orthogonalEdgeStyle;rounded=0;orthogonalLoop=1;jettySize=auto;html=1;entryX=1;entryY=0.75;entryDx=0;entryDy=0;" edge="1" parent="tP0BE2oLK_VEsoSUitUX-1" source="tP0BE2oLK_VEsoSUitUX-15" target="tP0BE2oLK_VEsoSUitUX-8">
          <mxGeometry relative="1" as="geometry">
            <Array as="points">
              <mxPoint x="380" y="193" />
            </Array>
          </mxGeometry>
        </mxCell>
        <mxCell id="tP0BE2oLK_VEsoSUitUX-10" value="商户现场" style="swimlane;html=1;startSize=20;" vertex="1" parent="tP0BE2oLK_VEsoSUitUX-1">
          <mxGeometry x="250" y="20" width="270" height="390" as="geometry" />
        </mxCell>
        <mxCell id="tP0BE2oLK_VEsoSUitUX-13" value="结束" style="ellipse;whiteSpace=wrap;html=1;rounded=0;shadow=0;labelBackgroundColor=none;strokeWidth=2;fontFamily=Verdana;fontSize=8;align=center;" vertex="1" parent="tP0BE2oLK_VEsoSUitUX-10">
          <mxGeometry x="120" y="320" width="30" height="30" as="geometry" />
        </mxCell>
        <mxCell id="tP0BE2oLK_VEsoSUitUX-15" value="商户现场，取回机具" style="rounded=1;whiteSpace=wrap;html=1;shadow=0;labelBackgroundColor=none;strokeWidth=1;fontFamily=Verdana;fontSize=8;align=center;" vertex="1" parent="tP0BE2oLK_VEsoSUitUX-10">
          <mxGeometry x="85" y="50" width="100" height="40" as="geometry" />
        </mxCell>
      </root>
    </mxGraphModel>
  </diagram>
</mxfile>
